solid cube
   facet normal -7.660444e-001 0.000000e+000 6.427876e-001
      outer loop
         vertex 6.817793e+001 0.000000e+000 1.776694e+002
         vertex 1.363559e+002 1.060660e+002 2.589207e+002
         vertex 0.000000e+000 1.060660e+002 9.641814e+001
      endloop
   endfacet
   facet normal -7.660444e-001 0.000000e+000 6.427876e-001
      outer loop
         vertex 0.000000e+000 1.060660e+002 9.641814e+001
         vertex 1.363559e+002 1.060660e+002 2.589207e+002
         vertex 6.817793e+001 2.121320e+002 1.776694e+002
      endloop
   endfacet
   facet normal -4.545195e-001 -7.071068e-001 -5.416753e-001
      outer loop
         vertex 1.830846e+002 0.000000e+000 8.125129e+001
         vertex 6.817793e+001 0.000000e+000 1.776694e+002
         vertex 1.149067e+002 1.060660e+002 0.000000e+000
      endloop
   endfacet
   facet normal -4.545195e-001 -7.071068e-001 -5.416753e-001
      outer loop
         vertex 1.149067e+002 1.060660e+002 0.000000e+000
         vertex 6.817793e+001 0.000000e+000 1.776694e+002
         vertex 0.000000e+000 1.060660e+002 9.641814e+001
      endloop
   endfacet
   facet normal 7.660444e-001 0.000000e+000 -6.427876e-001
      outer loop
         vertex 2.512625e+002 1.060660e+002 1.625026e+002
         vertex 1.830846e+002 0.000000e+000 8.125129e+001
         vertex 1.830846e+002 2.121320e+002 8.125129e+001
      endloop
   endfacet
   facet normal 7.660444e-001 0.000000e+000 -6.427876e-001
      outer loop
         vertex 1.830846e+002 2.121320e+002 8.125129e+001
         vertex 1.830846e+002 0.000000e+000 8.125129e+001
         vertex 1.149067e+002 1.060660e+002 0.000000e+000
      endloop
   endfacet
   facet normal 4.545195e-001 7.071068e-001 5.416753e-001
      outer loop
         vertex 1.363559e+002 1.060660e+002 2.589207e+002
         vertex 2.512625e+002 1.060660e+002 1.625026e+002
         vertex 6.817793e+001 2.121320e+002 1.776694e+002
      endloop
   endfacet
   facet normal 4.545195e-001 7.071068e-001 5.416753e-001
      outer loop
         vertex 6.817793e+001 2.121320e+002 1.776694e+002
         vertex 2.512625e+002 1.060660e+002 1.625026e+002
         vertex 1.830846e+002 2.121320e+002 8.125129e+001
      endloop
   endfacet
   facet normal 4.545195e-001 -7.071068e-001 5.416753e-001
      outer loop
         vertex 1.830846e+002 0.000000e+000 8.125129e+001
         vertex 2.512625e+002 1.060660e+002 1.625026e+002
         vertex 6.817793e+001 0.000000e+000 1.776694e+002
      endloop
   endfacet
   facet normal 4.545195e-001 -7.071068e-001 5.416753e-001
      outer loop
         vertex 6.817793e+001 0.000000e+000 1.776694e+002
         vertex 2.512625e+002 1.060660e+002 1.625026e+002
         vertex 1.363559e+002 1.060660e+002 2.589207e+002
      endloop
   endfacet
   facet normal -4.545195e-001 7.071068e-001 -5.416753e-001
      outer loop
         vertex 1.830846e+002 2.121320e+002 8.125129e+001
         vertex 1.149067e+002 1.060660e+002 0.000000e+000
         vertex 6.817793e+001 2.121320e+002 1.776694e+002
      endloop
   endfacet
   facet normal -4.545195e-001 7.071068e-001 -5.416753e-001
      outer loop
         vertex 6.817793e+001 2.121320e+002 1.776694e+002
         vertex 1.149067e+002 1.060660e+002 0.000000e+000
         vertex 0.000000e+000 1.060660e+002 9.641814e+001
      endloop
   endfacet
endsolid